<mxfile host="app.diagrams.net" modified="2023-04-07T05:42:20.442Z" agent="Mozilla/5.0 (Windows NT 10.0; Win64; x64) AppleWebKit/537.36 (KHTML, like Gecko) Chrome/111.0.0.0 Safari/537.36 Edg/111.0.1661.62" etag="cuieG91rOTJKZZQfJwAQ" version="21.1.4" type="github">
  <diagram name="Page-1" id="uQLAM3ZLKNqVGqTBinuA">
    <mxGraphModel dx="823" dy="490" grid="1" gridSize="10" guides="1" tooltips="1" connect="1" arrows="1" fold="1" page="1" pageScale="1" pageWidth="850" pageHeight="1100" math="0" shadow="0">
      <root>
        <mxCell id="0" />
        <mxCell id="1" parent="0" />
        <mxCell id="CkfqU9Ia_P-V2PE1FCUf-6" value="VPC" style="points=[[0,0],[0.25,0],[0.5,0],[0.75,0],[1,0],[1,0.25],[1,0.5],[1,0.75],[1,1],[0.75,1],[0.5,1],[0.25,1],[0,1],[0,0.75],[0,0.5],[0,0.25]];outlineConnect=0;gradientColor=none;html=1;whiteSpace=wrap;fontSize=12;fontStyle=0;container=1;pointerEvents=0;collapsible=0;recursiveResize=0;shape=mxgraph.aws4.group;grIcon=mxgraph.aws4.group_vpc;strokeColor=#248814;fillColor=none;verticalAlign=top;align=left;spacingLeft=30;fontColor=#AAB7B8;dashed=0;" parent="1" vertex="1">
          <mxGeometry x="210" y="20" width="570" height="520" as="geometry" />
        </mxCell>
        <mxCell id="CkfqU9Ia_P-V2PE1FCUf-4" value="Region" style="sketch=0;outlineConnect=0;gradientColor=none;html=1;whiteSpace=wrap;fontSize=12;fontStyle=0;shape=mxgraph.aws4.group;grIcon=mxgraph.aws4.group_region;strokeColor=#879196;fillColor=none;verticalAlign=top;align=left;spacingLeft=30;fontColor=#879196;dashed=1;" parent="CkfqU9Ia_P-V2PE1FCUf-6" vertex="1">
          <mxGeometry x="-90" y="-20" width="680" height="550" as="geometry" />
        </mxCell>
        <mxCell id="CkfqU9Ia_P-V2PE1FCUf-7" value="AZ1" style="sketch=0;outlineConnect=0;gradientColor=none;html=1;whiteSpace=wrap;fontSize=12;fontStyle=0;shape=mxgraph.aws4.group;grIcon=mxgraph.aws4.group_availability_zone;strokeColor=#545B64;fillColor=none;verticalAlign=top;align=left;spacingLeft=30;fontColor=#545B64;dashed=1;" parent="CkfqU9Ia_P-V2PE1FCUf-6" vertex="1">
          <mxGeometry x="50" y="30" width="490" height="180" as="geometry" />
        </mxCell>
        <mxCell id="CkfqU9Ia_P-V2PE1FCUf-11" value="Pub-app-sbnt-10.10.3.0/24" style="points=[[0,0],[0.25,0],[0.5,0],[0.75,0],[1,0],[1,0.25],[1,0.5],[1,0.75],[1,1],[0.75,1],[0.5,1],[0.25,1],[0,1],[0,0.75],[0,0.5],[0,0.25]];outlineConnect=0;gradientColor=none;html=1;whiteSpace=wrap;fontSize=12;fontStyle=0;container=1;pointerEvents=0;collapsible=0;recursiveResize=0;shape=mxgraph.aws4.group;grIcon=mxgraph.aws4.group_security_group;grStroke=0;strokeColor=#248814;fillColor=#E9F3E6;verticalAlign=top;align=left;spacingLeft=30;fontColor=#248814;dashed=0;" parent="CkfqU9Ia_P-V2PE1FCUf-6" vertex="1">
          <mxGeometry x="225" y="50" width="120" height="140" as="geometry" />
        </mxCell>
        <mxCell id="CkfqU9Ia_P-V2PE1FCUf-12" value="Pub-app-sbnt-10.10.5.0/24" style="points=[[0,0],[0.25,0],[0.5,0],[0.75,0],[1,0],[1,0.25],[1,0.5],[1,0.75],[1,1],[0.75,1],[0.5,1],[0.25,1],[0,1],[0,0.75],[0,0.5],[0,0.25]];outlineConnect=0;gradientColor=none;html=1;whiteSpace=wrap;fontSize=12;fontStyle=0;container=1;pointerEvents=0;collapsible=0;recursiveResize=0;shape=mxgraph.aws4.group;grIcon=mxgraph.aws4.group_security_group;grStroke=0;strokeColor=#248814;fillColor=#E9F3E6;verticalAlign=top;align=left;spacingLeft=30;fontColor=#248814;dashed=0;" parent="CkfqU9Ia_P-V2PE1FCUf-6" vertex="1">
          <mxGeometry x="380" y="50" width="120" height="140" as="geometry" />
        </mxCell>
        <mxCell id="CkfqU9Ia_P-V2PE1FCUf-58" value="" style="outlineConnect=0;dashed=0;verticalLabelPosition=bottom;verticalAlign=top;align=center;html=1;shape=mxgraph.aws3.rds;fillColor=#2E73B8;gradientColor=none;" parent="CkfqU9Ia_P-V2PE1FCUf-12" vertex="1">
          <mxGeometry x="27" y="37.5" width="66" height="65" as="geometry" />
        </mxCell>
        <mxCell id="rhDGiT12kqFtqI5CqG_f-7" value="RDS DB" style="text;html=1;strokeColor=none;fillColor=none;align=center;verticalAlign=middle;whiteSpace=wrap;rounded=0;" parent="CkfqU9Ia_P-V2PE1FCUf-12" vertex="1">
          <mxGeometry x="33" y="55" width="60" height="30" as="geometry" />
        </mxCell>
        <mxCell id="CkfqU9Ia_P-V2PE1FCUf-15" value="Pri-sbnt-10.10.1.0/24" style="points=[[0,0],[0.25,0],[0.5,0],[0.75,0],[1,0],[1,0.25],[1,0.5],[1,0.75],[1,1],[0.75,1],[0.5,1],[0.25,1],[0,1],[0,0.75],[0,0.5],[0,0.25]];outlineConnect=0;gradientColor=none;html=1;whiteSpace=wrap;fontSize=12;fontStyle=0;container=1;pointerEvents=0;collapsible=0;recursiveResize=0;shape=mxgraph.aws4.group;grIcon=mxgraph.aws4.group_security_group;grStroke=0;strokeColor=#147EBA;fillColor=#E6F2F8;verticalAlign=top;align=left;spacingLeft=30;fontColor=#147EBA;dashed=0;" parent="CkfqU9Ia_P-V2PE1FCUf-6" vertex="1">
          <mxGeometry x="80" y="300" width="120" height="150" as="geometry" />
        </mxCell>
        <mxCell id="CkfqU9Ia_P-V2PE1FCUf-80" value="" style="outlineConnect=0;dashed=0;verticalLabelPosition=bottom;verticalAlign=top;align=center;html=1;shape=mxgraph.aws3.application_load_balancer;fillColor=#F58534;gradientColor=none;" parent="CkfqU9Ia_P-V2PE1FCUf-15" vertex="1">
          <mxGeometry x="35" y="55.75" width="50" height="56" as="geometry" />
        </mxCell>
        <mxCell id="CkfqU9Ia_P-V2PE1FCUf-10" value="Pub-sbnt-10.10.1.0/24&lt;br&gt;" style="points=[[0,0],[0.25,0],[0.5,0],[0.75,0],[1,0],[1,0.25],[1,0.5],[1,0.75],[1,1],[0.75,1],[0.5,1],[0.25,1],[0,1],[0,0.75],[0,0.5],[0,0.25]];outlineConnect=0;gradientColor=none;html=1;whiteSpace=wrap;fontSize=12;fontStyle=0;container=1;pointerEvents=0;collapsible=0;recursiveResize=0;shape=mxgraph.aws4.group;grIcon=mxgraph.aws4.group_security_group;grStroke=0;strokeColor=#248814;fillColor=#E9F3E6;verticalAlign=top;align=left;spacingLeft=30;fontColor=#248814;dashed=0;" parent="CkfqU9Ia_P-V2PE1FCUf-6" vertex="1">
          <mxGeometry x="80" y="50" width="120" height="140" as="geometry" />
        </mxCell>
        <mxCell id="CkfqU9Ia_P-V2PE1FCUf-79" value="" style="outlineConnect=0;dashed=0;verticalLabelPosition=bottom;verticalAlign=top;align=center;html=1;shape=mxgraph.aws3.application_load_balancer;fillColor=#F58534;gradientColor=none;" parent="CkfqU9Ia_P-V2PE1FCUf-10" vertex="1">
          <mxGeometry x="35" y="42" width="50" height="56" as="geometry" />
        </mxCell>
        <mxCell id="rhDGiT12kqFtqI5CqG_f-1" value="ALB" style="text;html=1;strokeColor=none;fillColor=none;align=center;verticalAlign=middle;whiteSpace=wrap;rounded=0;" parent="CkfqU9Ia_P-V2PE1FCUf-10" vertex="1">
          <mxGeometry x="30" y="102.5" width="60" height="30" as="geometry" />
        </mxCell>
        <mxCell id="CkfqU9Ia_P-V2PE1FCUf-39" style="edgeStyle=orthogonalEdgeStyle;rounded=0;orthogonalLoop=1;jettySize=auto;html=1;entryX=0;entryY=0.5;entryDx=0;entryDy=0;" parent="CkfqU9Ia_P-V2PE1FCUf-6" source="CkfqU9Ia_P-V2PE1FCUf-20" edge="1">
          <mxGeometry relative="1" as="geometry">
            <mxPoint x="120" y="120" as="targetPoint" />
            <Array as="points">
              <mxPoint x="30" y="229" />
              <mxPoint x="30" y="120" />
            </Array>
          </mxGeometry>
        </mxCell>
        <mxCell id="CkfqU9Ia_P-V2PE1FCUf-40" style="edgeStyle=orthogonalEdgeStyle;rounded=0;orthogonalLoop=1;jettySize=auto;html=1;entryX=0;entryY=0.5;entryDx=0;entryDy=0;" parent="CkfqU9Ia_P-V2PE1FCUf-6" source="CkfqU9Ia_P-V2PE1FCUf-20" edge="1">
          <mxGeometry relative="1" as="geometry">
            <mxPoint x="120" y="385" as="targetPoint" />
            <Array as="points">
              <mxPoint x="30" y="230" />
              <mxPoint x="30" y="385" />
            </Array>
          </mxGeometry>
        </mxCell>
        <mxCell id="CkfqU9Ia_P-V2PE1FCUf-20" value="" style="sketch=0;points=[[0,0,0],[0.25,0,0],[0.5,0,0],[0.75,0,0],[1,0,0],[0,1,0],[0.25,1,0],[0.5,1,0],[0.75,1,0],[1,1,0],[0,0.25,0],[0,0.5,0],[0,0.75,0],[1,0.25,0],[1,0.5,0],[1,0.75,0]];outlineConnect=0;fontColor=#232F3E;gradientColor=#945DF2;gradientDirection=north;fillColor=#5A30B5;strokeColor=#ffffff;dashed=0;verticalLabelPosition=bottom;verticalAlign=top;align=center;html=1;fontSize=12;fontStyle=0;aspect=fixed;shape=mxgraph.aws4.resourceIcon;resIcon=mxgraph.aws4.route_53;" parent="CkfqU9Ia_P-V2PE1FCUf-6" vertex="1">
          <mxGeometry x="-70" y="200" width="60" height="60" as="geometry" />
        </mxCell>
        <mxCell id="CkfqU9Ia_P-V2PE1FCUf-42" value="&lt;br&gt;" style="endArrow=classic;html=1;rounded=0;exitX=1;exitY=0.5;exitDx=0;exitDy=0;" parent="CkfqU9Ia_P-V2PE1FCUf-6" edge="1">
          <mxGeometry width="50" height="50" relative="1" as="geometry">
            <mxPoint x="165" y="120" as="sourcePoint" />
            <mxPoint x="260.0000000000082" y="120" as="targetPoint" />
          </mxGeometry>
        </mxCell>
        <mxCell id="CkfqU9Ia_P-V2PE1FCUf-43" value="&lt;br&gt;" style="edgeStyle=orthogonalEdgeStyle;rounded=0;orthogonalLoop=1;jettySize=auto;html=1;entryX=0;entryY=0.5;entryDx=0;entryDy=0;" parent="CkfqU9Ia_P-V2PE1FCUf-6" edge="1">
          <mxGeometry relative="1" as="geometry">
            <mxPoint x="310" y="120" as="sourcePoint" />
            <mxPoint x="410.0000000000002" y="120" as="targetPoint" />
          </mxGeometry>
        </mxCell>
        <mxCell id="CkfqU9Ia_P-V2PE1FCUf-51" value="&lt;font color=&quot;#999999&quot;&gt;-10.10.0.0/20&lt;/font&gt;" style="text;html=1;strokeColor=none;fillColor=none;align=center;verticalAlign=middle;whiteSpace=wrap;rounded=0;" parent="CkfqU9Ia_P-V2PE1FCUf-6" vertex="1">
          <mxGeometry x="60" width="70" height="30" as="geometry" />
        </mxCell>
        <mxCell id="CkfqU9Ia_P-V2PE1FCUf-56" value="" style="image;aspect=fixed;perimeter=ellipsePerimeter;html=1;align=center;shadow=0;dashed=0;fontColor=#4277BB;labelBackgroundColor=default;fontSize=12;spacingTop=3;image=img/lib/ibm/applications/app_server.svg;whiteSpace=wrap;labelBorderColor=none;fontStyle=1" parent="CkfqU9Ia_P-V2PE1FCUf-6" vertex="1">
          <mxGeometry x="255" y="95" width="60" height="60" as="geometry" />
        </mxCell>
        <mxCell id="CkfqU9Ia_P-V2PE1FCUf-49" value="AZ2&lt;br&gt;" style="sketch=0;outlineConnect=0;gradientColor=none;html=1;whiteSpace=wrap;fontSize=12;fontStyle=0;shape=mxgraph.aws4.group;grIcon=mxgraph.aws4.group_availability_zone;strokeColor=#545B64;fillColor=none;verticalAlign=top;align=left;spacingLeft=30;fontColor=#545B64;dashed=1;" parent="CkfqU9Ia_P-V2PE1FCUf-6" vertex="1">
          <mxGeometry x="50" y="280" width="490" height="190" as="geometry" />
        </mxCell>
        <mxCell id="rhDGiT12kqFtqI5CqG_f-2" value="ALB" style="text;html=1;strokeColor=none;fillColor=none;align=center;verticalAlign=middle;whiteSpace=wrap;rounded=0;" parent="CkfqU9Ia_P-V2PE1FCUf-6" vertex="1">
          <mxGeometry x="110" y="420" width="60" height="30" as="geometry" />
        </mxCell>
        <mxCell id="rhDGiT12kqFtqI5CqG_f-3" value="APP Server 1" style="text;html=1;strokeColor=none;fillColor=none;align=center;verticalAlign=middle;whiteSpace=wrap;rounded=0;" parent="CkfqU9Ia_P-V2PE1FCUf-6" vertex="1">
          <mxGeometry x="245" y="160" width="80" height="30" as="geometry" />
        </mxCell>
        <mxCell id="rhDGiT12kqFtqI5CqG_f-4" value="APP Server 1" style="text;html=1;strokeColor=none;fillColor=none;align=center;verticalAlign=middle;whiteSpace=wrap;rounded=0;" parent="CkfqU9Ia_P-V2PE1FCUf-6" vertex="1">
          <mxGeometry x="245" y="420" width="80" height="30" as="geometry" />
        </mxCell>
        <mxCell id="CkfqU9Ia_P-V2PE1FCUf-16" value="Pri-app-sbnt-10.10.4.0/24" style="points=[[0,0],[0.25,0],[0.5,0],[0.75,0],[1,0],[1,0.25],[1,0.5],[1,0.75],[1,1],[0.75,1],[0.5,1],[0.25,1],[0,1],[0,0.75],[0,0.5],[0,0.25]];outlineConnect=0;gradientColor=none;html=1;whiteSpace=wrap;fontSize=12;fontStyle=0;container=1;pointerEvents=0;collapsible=0;recursiveResize=0;shape=mxgraph.aws4.group;grIcon=mxgraph.aws4.group_security_group;grStroke=0;strokeColor=#147EBA;fillColor=#E6F2F8;verticalAlign=top;align=left;spacingLeft=30;fontColor=#147EBA;dashed=0;" parent="CkfqU9Ia_P-V2PE1FCUf-6" vertex="1">
          <mxGeometry x="230" y="300" width="110" height="150" as="geometry" />
        </mxCell>
        <mxCell id="CkfqU9Ia_P-V2PE1FCUf-57" value="" style="image;aspect=fixed;perimeter=ellipsePerimeter;html=1;align=center;shadow=0;dashed=0;fontColor=#4277BB;labelBackgroundColor=default;fontSize=12;spacingTop=3;image=img/lib/ibm/applications/app_server.svg;" parent="CkfqU9Ia_P-V2PE1FCUf-16" vertex="1">
          <mxGeometry x="37.5" y="47.5" width="55" height="55" as="geometry" />
        </mxCell>
        <mxCell id="rhDGiT12kqFtqI5CqG_f-5" value="APP Server 2" style="text;html=1;strokeColor=none;fillColor=none;align=center;verticalAlign=middle;whiteSpace=wrap;rounded=0;" parent="CkfqU9Ia_P-V2PE1FCUf-16" vertex="1">
          <mxGeometry x="15" y="110" width="80" height="30" as="geometry" />
        </mxCell>
        <mxCell id="rhDGiT12kqFtqI5CqG_f-11" value="Route 53" style="text;html=1;strokeColor=none;fillColor=none;align=center;verticalAlign=middle;whiteSpace=wrap;rounded=0;" parent="CkfqU9Ia_P-V2PE1FCUf-6" vertex="1">
          <mxGeometry x="-70" y="270" width="60" height="30" as="geometry" />
        </mxCell>
        <mxCell id="CkfqU9Ia_P-V2PE1FCUf-17" value="Pri-app-sbnt-10.10.3.6.0/24" style="points=[[0,0],[0.25,0],[0.5,0],[0.75,0],[1,0],[1,0.25],[1,0.5],[1,0.75],[1,1],[0.75,1],[0.5,1],[0.25,1],[0,1],[0,0.75],[0,0.5],[0,0.25]];outlineConnect=0;gradientColor=none;html=1;whiteSpace=wrap;fontSize=12;fontStyle=0;container=1;pointerEvents=0;collapsible=0;recursiveResize=0;shape=mxgraph.aws4.group;grIcon=mxgraph.aws4.group_security_group;grStroke=0;strokeColor=#147EBA;fillColor=#E6F2F8;verticalAlign=top;align=left;spacingLeft=30;fontColor=#147EBA;dashed=0;" parent="1" vertex="1">
          <mxGeometry x="590" y="330" width="120" height="150" as="geometry" />
        </mxCell>
        <mxCell id="CkfqU9Ia_P-V2PE1FCUf-77" value="" style="outlineConnect=0;dashed=0;verticalLabelPosition=bottom;verticalAlign=top;align=center;html=1;shape=mxgraph.aws3.rds;fillColor=#2E73B8;gradientColor=none;" parent="CkfqU9Ia_P-V2PE1FCUf-17" vertex="1">
          <mxGeometry x="27" y="40" width="66" height="67.5" as="geometry" />
        </mxCell>
        <mxCell id="rhDGiT12kqFtqI5CqG_f-9" value="RDS DB" style="text;html=1;strokeColor=none;fillColor=none;align=center;verticalAlign=middle;whiteSpace=wrap;rounded=0;" parent="CkfqU9Ia_P-V2PE1FCUf-17" vertex="1">
          <mxGeometry x="33" y="60" width="60" height="30" as="geometry" />
        </mxCell>
        <mxCell id="CkfqU9Ia_P-V2PE1FCUf-34" value="" style="edgeStyle=orthogonalEdgeStyle;rounded=0;orthogonalLoop=1;jettySize=auto;html=1;" parent="1" edge="1">
          <mxGeometry relative="1" as="geometry">
            <mxPoint x="370" y="405" as="sourcePoint" />
            <mxPoint x="480" y="405" as="targetPoint" />
          </mxGeometry>
        </mxCell>
        <mxCell id="CkfqU9Ia_P-V2PE1FCUf-35" value="&lt;br&gt;" style="edgeStyle=orthogonalEdgeStyle;rounded=0;orthogonalLoop=1;jettySize=auto;html=1;" parent="1" edge="1">
          <mxGeometry relative="1" as="geometry">
            <mxPoint x="530" y="405" as="sourcePoint" />
            <mxPoint x="620" y="405" as="targetPoint" />
          </mxGeometry>
        </mxCell>
        <mxCell id="rhDGiT12kqFtqI5CqG_f-16" style="edgeStyle=orthogonalEdgeStyle;rounded=0;orthogonalLoop=1;jettySize=auto;html=1;entryX=0;entryY=0.5;entryDx=0;entryDy=0;entryPerimeter=0;" parent="1" source="CkfqU9Ia_P-V2PE1FCUf-81" target="CkfqU9Ia_P-V2PE1FCUf-20" edge="1">
          <mxGeometry relative="1" as="geometry">
            <Array as="points">
              <mxPoint x="40" y="250" />
            </Array>
          </mxGeometry>
        </mxCell>
        <mxCell id="CkfqU9Ia_P-V2PE1FCUf-81" value="" style="outlineConnect=0;dashed=0;verticalLabelPosition=bottom;verticalAlign=top;align=center;html=1;shape=mxgraph.aws3.internet;fillColor=#D2D3D3;gradientColor=none;" parent="1" vertex="1">
          <mxGeometry y="100" width="79.5" height="79.5" as="geometry" />
        </mxCell>
        <mxCell id="rhDGiT12kqFtqI5CqG_f-8" value="" style="endArrow=classic;startArrow=classic;html=1;rounded=0;" parent="1" edge="1">
          <mxGeometry width="50" height="50" relative="1" as="geometry">
            <mxPoint x="650" y="370" as="sourcePoint" />
            <mxPoint x="650" y="170" as="targetPoint" />
          </mxGeometry>
        </mxCell>
        <mxCell id="rhDGiT12kqFtqI5CqG_f-10" value="Text" style="text;html=1;strokeColor=none;fillColor=none;align=center;verticalAlign=middle;whiteSpace=wrap;rounded=0;" parent="1" vertex="1">
          <mxGeometry x="390" y="400" width="60" height="30" as="geometry" />
        </mxCell>
        <mxCell id="rhDGiT12kqFtqI5CqG_f-17" value="Text" style="text;html=1;strokeColor=none;fillColor=none;align=center;verticalAlign=middle;whiteSpace=wrap;rounded=0;" parent="1" vertex="1">
          <mxGeometry x="390" y="240" width="60" height="30" as="geometry" />
        </mxCell>
        <mxCell id="rhDGiT12kqFtqI5CqG_f-18" value="Internet&lt;br&gt;" style="text;html=1;strokeColor=none;fillColor=none;align=center;verticalAlign=middle;whiteSpace=wrap;rounded=0;" parent="1" vertex="1">
          <mxGeometry x="9.75" y="120" width="60" height="30" as="geometry" />
        </mxCell>
      </root>
    </mxGraphModel>
  </diagram>
</mxfile>
